<?xml version="1.0" encoding="utf-8"?>
<!-- Generator: Adobe Illustrator 23.0.6, SVG Export Plug-In . SVG Version: 6.00 Build 0)  -->
<svg version="1.1" id="Layer_1" xmlns="http://www.w3.org/2000/svg" xmlns:xlink="http://www.w3.org/1999/xlink" x="0px" y="0px"
	 viewBox="0 0 10279.3 4593" style="enable-background:new 0 0 10279.3 4593;" xml:space="preserve">
<style type="text/css">
	.st0{fill:#F48C7D;}
	.st1{fill:#FFFFFF;}
	.st2{fill:none;}
</style>
<polygon class="st0" points="1015.4,2194 1015.4,3116.5 683.2,3351.2 683.2,2423.5 "/>
<polygon class="st1" points="2336.2,1282.5 2336.2,3371.8 1847.2,3025.8 1495.8,2777.4 1191.3,2992.8 1191.3,2478.8 1195.5,2476.1 
	1471.7,2280.6 1472.4,2280.9 1834.9,2537.6 1847.2,2546.2 1847.2,1626.7 "/>
<line class="st2" x1="1015.4" y1="2194" x2="683.5" y2="2423.5"/>
<path class="st0" d="M3125.1,1813.2v864.5H3624l-23.9,188.5h-694.8v-1053L3125.1,1813.2L3125.1,1813.2z"/>
<path class="st0" d="M3961.3,1813.2v185.5h-212.4v-185.5H3961.3z M3958.3,2095.9v769.5h-206.4v-769.5H3958.3z"/>
<path class="st0" d="M4068.9,2256.7v-160.8h121.2V1891h206.4v204.9h177.2v160.8h-177.2V2612c0,40.4,8.2,67.3,25.4,81.5
	c16.5,14.2,38.1,21.7,65.1,21.7c13.5,0,27.7-0.7,41.9-2.2c14.2-1.5,28.4-4.5,41.9-8.2l29.2,151.8c-28.4,9-56.1,15-83,18.7
	c-26.9,3.7-53.1,5.2-77.8,5.2c-84.5,0-147.3-20.2-187.7-60.6s-61.3-108.4-61.3-203.4v-359.7L4068.9,2256.7L4068.9,2256.7z"/>
<path class="st0" d="M4627.6,2256.7v-160.8h121.2V1891h206.4v204.9h177.2v160.8h-177.2V2612c0,40.4,8.2,67.3,25.4,81.5
	s38.1,21.7,65.1,21.7c13.5,0,27.7-0.7,41.9-2.2c14.2-1.5,28.4-4.5,41.9-8.2l29.2,151.8c-28.4,9-56.1,15-83,18.7
	c-26.9,3.7-53.1,5.2-77.8,5.2c-84.5,0-147.3-20.2-187.7-60.6c-40.4-40.4-61.3-108.4-61.3-203.4v-359.7L4627.6,2256.7L4627.6,2256.7z
	"/>
<path class="st0" d="M5468.9,1813.2v1053h-206.4v-1053H5468.9z"/>
<path class="st0" d="M6254.2,2822.9c-55.3,44.9-136.1,67.3-242.3,67.3c-127.9,0-223.6-35.1-288.7-106.2
	c-64.3-71-96.5-171.3-96.5-300.6c0-65.1,9-122.6,27.7-173.5c18.7-50.9,44.9-93.5,79.3-129.4c33.7-35.1,74.8-62.1,121.9-80
	c47.1-17.9,99.5-26.9,156.3-26.9c118.2,0,206.4,33.7,266.2,101.7c59.8,68.1,89,159.3,89,274.5v82.3h-534
	c2.2,62.1,17.9,110.7,47.1,145.1c29.2,34.4,74,52.4,132.4,52.4c81.5,0,130.1-34.4,144.3-103.2h200.4
	C6343.9,2712.2,6309.5,2778,6254.2,2822.9z M6128.5,2271.7c-26.2-29.2-66.6-44.1-121.9-44.1c-27.7,0-51.6,4.5-72.5,13.5
	c-20.9,9-38.1,20.9-52.4,35.9c-14.2,15-25.4,32.9-32.9,53.1c-7.5,20.2-12,41.9-13.5,65.8h332
	C6167.4,2342.7,6154.7,2300.8,6128.5,2271.7z"/>
<path class="st1" d="M6808.8,1813.2l169.8,731.4l172.8-725.4h233.3l180.2,725.4l159.3-731.4h236.3l-286.4,1053h-213.9l-195.9-778.5
	l-190,778.5h-207.9l-303.6-1053H6808.8z"/>
<path class="st1" d="M8592.4,2822.9c-55.3,44.9-136.1,67.3-242.3,67.3c-127.9,0-223.6-35.1-288.7-106.2
	c-64.3-71-96.5-171.3-96.5-300.6c0-65.1,9-122.6,27.7-173.5c18.7-50.9,44.9-93.5,79.3-129.4c33.7-35.1,74.8-62.1,121.9-80
	c47.1-17.9,99.5-26.9,156.3-26.9c118.2,0,206.4,33.7,266.2,101.7s89,159.3,89,274.5v82.3h-534c2.2,62.1,17.9,110.7,47.1,145.1
	c29.2,35.1,74,52.4,132.4,52.4c81.5,0,130.1-34.4,144.3-103.2h200.4C8682.9,2712.2,8647.8,2778,8592.4,2822.9z M8467.6,2271.7
	c-26.2-29.2-66.6-44.1-121.9-44.1c-27.7,0-51.6,4.5-72.5,13.5c-20.9,9-38.1,20.9-52.3,35.9c-14.2,15-25.4,32.9-32.9,53.1
	c-7.5,20.2-12,41.9-13.5,65.8h332C8506.4,2342.7,8493,2300.8,8467.6,2271.7z"/>
<path class="st1" d="M9155.6,2889.4c-108.4,0-188.5-36.6-241.6-109.2c-53.1-72.5-79.3-173.5-79.3-302.1c0-59.8,7.5-114.4,23.2-164.5
	c15-49.4,37.4-92.7,65.8-128.6c28.4-35.9,63.6-63.6,104.7-83c41.1-19.4,88.2-29.2,139.8-29.2c38.1,0,76.3,6.7,114.4,20.9
	c38.1,13.5,73.3,40.4,106.9,79.3v-359.7h206.4v1053h-201.9v-101.7C9335.1,2847.5,9255.8,2889.4,9155.6,2889.4z M9376.9,2353.9
	c-8.2-29.2-21.7-53.8-40.4-72.5c-17.9-17.9-37.4-29.2-58.3-34.4c-20.9-5.2-41.9-8.2-62.8-8.2c-22.4,0-44.1,4.5-64.3,13.5
	c-20.2,9-38.1,22.4-53.1,41.1s-26.9,43.4-35.9,74c-9,30.7-13.5,66.6-13.5,109.2c0,46.4,4.5,84.5,12.7,115.9
	c8.2,30.7,20.2,56.1,34.4,75.5c15,19.4,32.2,32.9,51.6,41.1c19.4,8.2,41.1,12.7,63.6,12.7c49.4,0,89.7-14.2,121.2-42.6
	c19.4-19.4,34.4-43.4,43.4-71.8c9-28.4,14.2-64.3,14.2-108.4v-26.2C9389.7,2422.7,9385.2,2383.9,9376.9,2353.9z"/>
</svg>
