<?xml version="1.0" encoding="utf-8"?>
<!-- Generator: Adobe Illustrator 23.0.6, SVG Export Plug-In . SVG Version: 6.00 Build 0)  -->
<svg version="1.1" id="Layer_1" xmlns="http://www.w3.org/2000/svg" xmlns:xlink="http://www.w3.org/1999/xlink" x="0px" y="0px"
	 viewBox="0 0 2158.8 1675.2" style="enable-background:new 0 0 2158.8 1675.2;" xml:space="preserve">
<style type="text/css">
	.st0{fill:#F48C7D;}
	.st1{fill:#FFFFFF;}
	.st2{fill:#151516;}
	.st3{fill:none;}
</style>
<polygon class="st0" points="935.5,829.5 935.5,1098 838.8,1166.3 838.8,896.3 "/>
<polygon class="st1" points="1319.9,564.2 1319.9,1172.3 1177.6,1071.6 1075.3,999.3 986.7,1062 986.7,912.4 987.9,911.6 
	1068.3,854.7 1068.5,854.8 1174,929.5 1177.6,932 1177.6,664.4 "/>
<path class="st2" d="M1042.2,854.8"/>
<line class="st3" x1="935.5" y1="829.5" x2="838.9" y2="896.3"/>
<line class="st3" x1="805.1" y1="1100.9" x2="682.7" y2="1187.3"/>
<path class="st0" d="M648.5,1219.1v115.6h66.7l-3.2,25.2h-92.9v-140.8H648.5z"/>
<path class="st0" d="M760.3,1219.1v24.8h-28.4v-24.8H760.3z M759.9,1256.9v102.9h-27.6v-102.9H759.9z"/>
<path class="st0" d="M774.7,1278.4v-21.5h16.2v-27.4h27.6v27.4h23.7v21.5h-23.7v47.5c0,5.4,1.1,9,3.4,10.9c2.2,1.9,5.1,2.9,8.7,2.9
	c1.8,0,3.7-0.1,5.6-0.3c1.9-0.2,3.8-0.6,5.6-1.1l3.9,20.3c-3.8,1.2-7.5,2-11.1,2.5c-3.6,0.5-7.1,0.7-10.4,0.7
	c-11.3,0-19.7-2.7-25.1-8.1s-8.2-14.5-8.2-27.2v-48.1H774.7z"/>
<path class="st0" d="M849.4,1278.4v-21.5h16.2v-27.4h27.6v27.4h23.7v21.5h-23.7v47.5c0,5.4,1.1,9,3.4,10.9s5.1,2.9,8.7,2.9
	c1.8,0,3.7-0.1,5.6-0.3c1.9-0.2,3.8-0.6,5.6-1.1l3.9,20.3c-3.8,1.2-7.5,2-11.1,2.5c-3.6,0.5-7.1,0.7-10.4,0.7
	c-11.3,0-19.7-2.7-25.1-8.1s-8.2-14.5-8.2-27.2v-48.1H849.4z"/>
<path class="st0" d="M961.9,1219.1v140.8h-27.6v-140.8H961.9z"/>
<path class="st0" d="M1066.9,1354.1c-7.4,6-18.2,9-32.4,9c-17.1,0-29.9-4.7-38.6-14.2c-8.6-9.5-12.9-22.9-12.9-40.2
	c0-8.7,1.2-16.4,3.7-23.2c2.5-6.8,6-12.5,10.6-17.3c4.5-4.7,10-8.3,16.3-10.7c6.3-2.4,13.3-3.6,20.9-3.6c15.8,0,27.6,4.5,35.6,13.6
	s11.9,21.3,11.9,36.7v11h-71.4c0.3,8.3,2.4,14.8,6.3,19.4s9.9,7,17.7,7c10.9,0,17.4-4.6,19.3-13.8h26.8
	C1078.9,1339.3,1074.3,1348.1,1066.9,1354.1z M1050.1,1280.4c-3.5-3.9-8.9-5.9-16.3-5.9c-3.7,0-6.9,0.6-9.7,1.8
	c-2.8,1.2-5.1,2.8-7,4.8s-3.4,4.4-4.4,7.1s-1.6,5.6-1.8,8.8h44.4C1055.3,1289.9,1053.6,1284.3,1050.1,1280.4z"/>
<path class="st1" d="M1169.3,1219.1l22.7,97.8l23.1-97h31.2l24.1,97l21.3-97.8h31.6l-38.3,140.8h-28.6l-26.2-104.1l-25.4,104.1
	h-27.8l-40.6-140.8H1169.3z"/>
<path class="st1" d="M1407.8,1354.1c-7.4,6-18.2,9-32.4,9c-17.1,0-29.9-4.7-38.6-14.2c-8.6-9.5-12.9-22.9-12.9-40.2
	c0-8.7,1.2-16.4,3.7-23.2c2.5-6.8,6-12.5,10.6-17.3c4.5-4.7,10-8.3,16.3-10.7c6.3-2.4,13.3-3.6,20.9-3.6c15.8,0,27.6,4.5,35.6,13.6
	c8,9.1,11.9,21.3,11.9,36.7v11h-71.4c0.3,8.3,2.4,14.8,6.3,19.4c3.9,4.7,9.9,7,17.7,7c10.9,0,17.4-4.6,19.3-13.8h26.8
	C1419.9,1339.3,1415.2,1348.1,1407.8,1354.1z M1391.1,1280.4c-3.5-3.9-8.9-5.9-16.3-5.9c-3.7,0-6.9,0.6-9.7,1.8
	c-2.8,1.2-5.1,2.8-7,4.8s-3.4,4.4-4.4,7.1s-1.6,5.6-1.8,8.8h44.4C1396.3,1289.9,1394.5,1284.3,1391.1,1280.4z"/>
<path class="st1" d="M1483.1,1363c-14.5,0-25.2-4.9-32.3-14.6c-7.1-9.7-10.6-23.2-10.6-40.4c0-8,1-15.3,3.1-22
	c2-6.6,5-12.4,8.8-17.2c3.8-4.8,8.5-8.5,14-11.1c5.5-2.6,11.8-3.9,18.7-3.9c5.1,0,10.2,0.9,15.3,2.8c5.1,1.8,9.8,5.4,14.3,10.6
	v-48.1h27.6v140.8H1515v-13.6C1507.1,1357.4,1496.5,1363,1483.1,1363z M1512.7,1291.4c-1.1-3.9-2.9-7.2-5.4-9.7
	c-2.4-2.4-5-3.9-7.8-4.6c-2.8-0.7-5.6-1.1-8.4-1.1c-3,0-5.9,0.6-8.6,1.8s-5.1,3-7.1,5.5s-3.6,5.8-4.8,9.9c-1.2,4.1-1.8,8.9-1.8,14.6
	c0,6.2,0.6,11.3,1.7,15.5c1.1,4.1,2.7,7.5,4.6,10.1c2,2.6,4.3,4.4,6.9,5.5c2.6,1.1,5.5,1.7,8.5,1.7c6.6,0,12-1.9,16.2-5.7
	c2.6-2.6,4.6-5.8,5.8-9.6s1.9-8.6,1.9-14.5v-3.5C1514.4,1300.6,1513.8,1295.4,1512.7,1291.4z"/>
</svg>
